  <!-- Shopping Cart -->
    <svg
      height="100%"
      viewBox="0 0 24 24"
      width="100%"
      fit=""
      preserveAspectRatio="xMidYMid meet"
      focusable="false"
    >
      <circle cx="7" cy="20" r="2"></circle>
      <circle cx="17" cy="20" r="2"></circle>
      <path
        d="M14.59 13h.83c.72 0 1.38-.39 1.74-1.01l3.28-5.75c.26-.46.26-1.04 0-1.5S19.67 4 19.14 4H5.54l-.89-2H1v2h2.35l3.54 7.98-1.07 2.13c-.31.62-.28 1.35.09 1.95s1 .95 1.7.95H19v-2H7.62l1-2h5.97zm3.69-7l-2.86 5H8.65L6.43 6h11.85z"
      ></path>
    </svg>
    <!-- Shopping Cart with Plus Sign -->
    <svg
      height="100%"
      viewBox="0 0 24 24"
      width="100%"
      fit=""
      preserveAspectRatio="xMidYMid meet"
      focusable="false"
    >
      <path d="M11 9h2V6h3V4h-3V1h-2v3H8v2h3z"></path>
      <circle cx="7" cy="20" r="2"></circle>
      <circle cx="17" cy="20" r="2"></circle>
      <path
        d="M8.62 13h7.97l5-9H19.3l-3.89 7H8.65l-4-9H1v2h2.35l3.54 7.98-1.07 2.13c-.31.62-.28 1.35.09 1.95s1 .95 1.7.95H19v-2H7.62l1-2.01z"
      ></path>
    </svg>

<!-- Shopping Cart -->
      <svg viewBox="0 0 500 500" id="shopping-cart-svg-symbol">
    <g stroke="" stroke-width="" fill="" stroke-linecap="round" stroke-dasharray="null" class="shopping-cart-svg-layer">
      <title>Shopping Cart</title>
      <path
        d="m17.70473,39.26651c-8.45639,0 -15.70472,-8.26326 -15.70472,-18.36279c0,-9.64047 7.24833,-17.90372 15.70472,-17.90372l41.07388,0c0.40269,0 1.20806,0 1.61074,0c14.49666,0.45907 27.38259,3.67256 38.25509,11.47674c12.08055,8.72233 20.93963,22.03535 25.77185,41.77535c0,0.45907 0,0.91814 0.40269,1.37721l4.02685,18.36279l352.34948,0c8.85907,0 15.70472,8.26326 15.70472,17.90372c0,1.83628 -0.40269,3.67256 -0.80537,5.50884l-41.07388,188.67767c-1.61074,8.26326 -8.0537,13.77209 -15.30203,13.77209l0,0l-257.71848,0c5.63759,23.87163 11.27518,36.72558 18.9262,42.69349c9.26176,6.88605 25.36916,7.34512 52.34907,6.88605l0.40269,0l0,0l182.01367,0c8.85907,0 15.70472,8.26326 15.70472,17.90372c0,10.09953 -7.24833,17.90372 -15.70472,17.90372l-182.01367,0l0,0c-33.42286,0.45907 -53.95981,-0.45907 -70.4699,-12.85395c-16.91278,-12.85395 -25.77185,-34.8893 -34.63092,-74.82837l0,0l-53.95981,-232.74837c0,-0.45907 0,-0.45907 -0.40269,-0.91814c-2.41611,-10.09953 -6.44296,-16.98558 -12.08055,-20.65814c-5.63759,-4.13163 -13.28861,-5.96791 -22.14768,-5.96791c-0.40269,0 -0.80537,0 -1.20806,0l-41.07388,0l0,0zm370.87299,369.09209c21.34231,0 38.65777,19.74 38.65777,44.0707c0,24.3307 -17.31546,44.0707 -38.65777,44.0707c-21.34231,0 -38.65777,-19.74 -38.65777,-44.0707c0,-24.3307 17.31546,-44.0707 38.65777,-44.0707l0,0zm-169.53044,0c21.34231,0 38.65777,19.74 38.65777,44.0707c0,24.3307 -17.31546,44.0707 -38.65777,44.0707c-21.34231,0 -38.65777,-19.74 -38.65777,-44.0707c0,-24.3307 17.31546,-44.0707 38.65777,-44.0707l0,0zm-81.34239,-296.55907l35.83898,153.78837l254.09431,0l33.42286,-153.78837l-323.35615,0l0,0z" />
    </g>
   </svg>